# AST/ASF file generated using VICON BodyLanguage
# -----------------------------------------------
:version 1.10
:name VICON
:units
  mass 1.0
  length 0.45
  angle deg
:documentation
   .ast/.asf automatically generated from VICON data using
   VICON BodyBuilder and BodyLanguage model FoxedUp or BRILLIANT.MOD
:root
   order TX TY TZ RX RY RZ
   axis XYZ
   position 0 0 0  
   orientation 0 0 0 
:bonedata
  begin
     id 1 
     name lhipjoint
     direction 0.558404 -0.748506 0.357664 
     length 2.4234 
     axis 0 0 0  XYZ
  end
  begin
     id 2 
     name lfemur
     direction 0.34202 -0.939693 0  
     length 7.14567  
     axis 0 0 20  XYZ
    dof rx ry rz
    limits (-160.0 20.0)
           (-70.0 70.0)
           (-60.0 70.0)
  end
  begin
     id 3 
     name ltibia
     direction 0.34202 -0.939693 0   
     length 8.13956   
     axis 0 0 20   XYZ
    dof rx
    limits (-10.0 170.0)
  end
  begin
     id 4 
     name lfoot
     direction 0.0791314 -0.217412 0.972867   
     length 2.00134   
     axis -90 7.62852e-016 20   XYZ
    dof rx rz
    limits (-45.0 90.0)
           (-70.0 20.0)
  end
  begin
     id 5 
     name ltoes
     direction 1.53547e-011 -4.21922e-011 1   
     length 1.00735   
     axis -90 7.62852e-016 20   XYZ
    dof rx
    limits (-90.0 20.0)
  end
  begin
     id 6 
     name rhipjoint
     direction -0.496392 -0.78327 0.374276   
     length 2.31584  
     axis 0 0 0  XYZ 
  end
  begin
     id 7 
     name rfemur
     direction -0.34202 -0.939693 0   
     length 7.47417   
     axis 0 0 -20   XYZ
    dof rx ry rz
    limits (-160.0 20.0)
           (-70.0 70.0)
           (-70.0 60.0)
  end
  begin
     id 8 
     name rtibia
     direction -0.34202 -0.939693 0   
     length 7.69071   
     axis 0 0 -20   XYZ
    dof rx
    limits (-10.0 170.0)
 end
 begin
     id 9 
     name rfoot
     direction -0.103069 -0.28318 0.953512   
     length 2.16135  
     axis -90 -7.62852e-016 -20   XYZ
    dof rx rz
    limits (-45.0 90.0)
           (-20.0 70.0)
  end
  begin
     id 10 
     name rtoes
     direction -1.53581e-011 -4.21904e-011 1   
     length 1.07867   
     axis -90 -7.62852e-016 -20   XYZ
    dof rx
    limits (-90.0 20.0)
  end
  begin
     id 11 
     name lowerback
     direction -0.0258961 0.994776 -0.0987407   
     length 2.19412   
     axis 0 0 0   XYZ
    dof rx ry rz
    limits (-20.0 45.0)
           (-30.0 30.0)
           (-30.0 30.0)
  end
  begin
     id 12 
     name upperback
     direction 0.0402454 0.999185 0.00320666   
     length 2.18445   
     axis 0 0 0   XYZ
    dof rx ry rz
    limits (-20.0 45.0)
           (-30.0 30.0)
           (-30.0 30.0)
  end
  begin
     id 13 
     name thorax
     direction 0.0519376 0.997415 0.0496558   
     length 2.21487   
     axis 0 0 0   XYZ
    dof rx ry rz
    limits (-20.0 45.0)
           (-30.0 30.0)
           (-30.0 30.0)
  end
  begin
     id 14 
     name lowerneck
     direction -0.0921276 0.983211 0.157506   
     length 1.61201   
     axis 0 0 0   XYZ
    dof rx ry rz
    limits (-20.0 45.0)
           (-30.0 30.0)
           (-30.0 30.0)
  end
  begin
     id 15 
     name upperneck
     direction 0.0820814 0.98162 -0.172292   
     length 1.65275   
     axis 0 0 0   XYZ
    dof rx ry rz
    limits (-20.0 45.0)
           (-30.0 30.0)
           (-30.0 30.0)
  end
  begin
     id 16
     name head
     direction 0.0336554 0.996413 -0.0776455  
     length 1.66415  
     axis 0 0 0   XYZ
    dof rx ry rz
    limits (-20.0 45.0)
           (-30.0 30.0)
           (-30.0 30.0)
  end
  begin
     id 17 
     name lclavicle
     direction 0.94696 0.284418 -0.149576  
     length 3.41447  
     axis 0 0 0   XYZ
    dof ry rz
    limits (-20.0 10.0)
           (0.0 20.0)
  end
  begin
     id 18 
     name lhumerus
     direction 1 -0.000130264 -9.81312e-005   
     length 5.19964   
     axis 180 -30 -90   XYZ
    dof rx ry rz
    limits (-60.0 90.0)
           (-90.0 90.0)
           (-90.0 90.0)
  end
  begin
     id 19
     name lradius
     direction 1 -4.48961e-011 1.43854e-026   
     length 3.32189   
     axis 180 -30 -90   XYZ
    dof rx
    limits (-10.0 170.0)
  end
  begin
     id 20
     name lwrist
     direction 1 -4.48958e-011 3.1502e-026   
     length 1.66095   
     axis -1.97692e-014 90 90   XYZ
    dof ry
    limits (-180.0 0.0)
 end
  begin
     id 21 
     name lhand
     direction 1 -4.48927e-011 6.3004e-026   
     length 0.645616   
     axis -4.02019e-014 90 90   XYZ
    dof rx rz
    limits (-90.0 90.0)
           (-45.0 45.0)
  end
  begin
     id 22 
     name lfingers
     direction 1 -4.4904e-011 1.26008e-025   
     length 0.520512   
     axis -8.04039e-014 90 90   XYZ
    dof rx
    limits (0.0 90.0)
  end
  begin
     id 23
     name lthumb
     direction 0.707107 -6.34947e-011 0.707107   
     length 0.747354   
     axis -90 45 2.85299e-015   XYZ
    dof rx rz
    limits (-45.0 45.0)
           (-45.0 45.0)
  end
  begin
     id 24 
     name rclavicle
     direction -0.909391 0.383475 -0.161107   
     length 3.25176  
     axis 0 0 0   XYZ 
    dof ry rz
    limits (-10.0 20.0)
           (-20.0 0.0)
  end
  begin
     id 25 
     name rhumerus
     direction -1 -4.48965e-011 -1.81384e-027  
     length 5.6595   
     axis 180 30 90   XYZ
    dof rx ry rz
    limits (-90.0 60.0)
           (-90.0 90.0)
           (-90.0 90.0)
  end
  begin
     id 26 
     name rradius
     direction -1 -4.48996e-011 -8.09397e-027   
     length 3.37604   
     axis 180 30 90   XYZ
    dof rx
    limits (-10.0 170.0)
  end
  begin
     id 27 
     name rwrist
     direction -1 -4.48927e-011 -1.56669e-026   
     length 1.68802   
     axis 1.21142e-014 -90 -90   XYZ
    dof ry
    limits (-180.0 0.0)
  end
  begin
     id 28
     name rhand
     direction -1 -4.48912e-011 -3.13339e-026   
     length 0.824702   
     axis 1.99937e-014 -90 -90   XYZ
    dof rx rz
    limits (-90.0 90.0)
           (-45.0 45.0)
  end
  begin
     id 29
     name rfingers
     direction -1 -4.49011e-011 -6.26677e-026   
     length 0.664896   
     axis 3.99874e-014 -90 -90   XYZ
    dof rx
    limits (0.0 90.0)
  end
  begin
     id 30
     name rthumb
     direction -0.707107 -6.34931e-011 0.707107   
     length 0.954662   
     axis -90 -45 -2.85299e-015   XYZ
    dof rx rz
    limits (-45.0 45.0)
           (-45.0 45.0)
  end
:hierarchy
  begin
    root lhipjoint rhipjoint lowerback
    lhipjoint lfemur
    lfemur ltibia
    ltibia lfoot
    lfoot ltoes
    rhipjoint rfemur
    rfemur rtibia
    rtibia rfoot
    rfoot rtoes
    lowerback upperback
    upperback thorax
    thorax lowerneck lclavicle rclavicle
    lowerneck upperneck
    upperneck head
    lclavicle lhumerus
    lhumerus lradius
    lradius lwrist
    lwrist lhand lthumb
    lhand lfingers
    rclavicle rhumerus
    rhumerus rradius
    rradius rwrist
    rwrist rhand rthumb
    rhand rfingers
  end

#!OML:ASF F:\VICON\USERDATA\INSTALL\rory3\rory3.ASF
:FULLY-SPECIFIED
:DEGREES
56
root 10.3329 17.7609 -18.1233 7.38625 -37.6792 -7.87967
lowerback 3.26448 -0.312196 -1.73
upperback -2.04342 -0.369429 4.4059
thorax -3.91002 -0.0846154 5.58421
lowerneck -11.3645 -8.79348 -17.7023
upperneck 17.1677 -11.5303 13.5189
head 9.09388 -5.46764 6.12993
rclavicle -2.31274e-014 4.21423e-014
rhumerus -38.9575 -20.4524 -68.1313
rradius 32.145
rwrist -15.1675
rhand -10.1522 16.9561
rfingers 7.12502
rthumb 15.8371 -12.4162
lclavicle -2.31274e-014 4.21423e-014
lhumerus -34.3039 22.5299 76.3555
lradius 25.8628
lwrist -11.4795
lhand 0.317947 32.8937
lfingers 7.12502
lthumb 25.8949 61.1504
rfemur -14.3198 4.99492 23.2429
rtibia 37.5798
rfoot -20.3584 -10.3813
rtoes 10.8316
lfemur -11.7221 0.0776453 -16.6022
ltibia 37.3137
lfoot -24.6917 10.7699
ltoes 4.64676
57
root 10.3317 17.7622 -18.1271 7.40975 -37.6151 -7.89145
lowerback 2.95458 -0.299806 -1.54791
upperback -1.7865 -0.355437 4.28914
thorax -3.46941 -0.0963136 5.34614
lowerneck -11.5798 -8.84766 -17.7412
upperneck 17.0858 -11.602 13.7554
head 9.13656 -5.47379 6.20287
rclavicle -7.05018e-014 -3.598e-014
rhumerus -38.6403 -21.269 -68.1068
rradius 31.813
rwrist -14.4321
rhand -10.2915 17.0406
rfingers 7.12502
rthumb 15.703 -12.3423
lclavicle -7.05018e-014 -3.598e-014
lhumerus -33.7841 22.409 76.4258
lradius 25.7799
lwrist -11.49
lhand 0.378123 32.8329
lfingers 7.12502
lthumb 25.9525 61.0812
rfemur -14.3459 5.00454 23.279
rtibia 37.5715
rfoot -20.3432 -10.4312
rtoes 10.7943
lfemur -11.7703 -0.139637 -16.5833
ltibia 37.3154
lfoot -24.7798 10.807
ltoes 4.78364
58
root 10.3302 17.763 -18.1327 7.4217 -37.6408 -7.83228
lowerback 2.79529 -0.305364 -1.54678
upperback -1.69345 -0.367429 4.23041
thorax -3.28158 -0.107822 5.28034
lowerneck -11.6773 -8.82766 -17.7364
upperneck 17.044 -11.5722 13.848
head 9.14086 -5.44729 6.23693
rclavicle 5.16359e-014 -2.36554e-014
rhumerus -38.5123 -21.3875 -68.1872
rradius 31.6342
rwrist -14.4502
rhand -10.4054 17.039
rfingers 7.12502
rthumb 15.5933 -12.3525
lclavicle 5.16359e-014 -2.36554e-014
lhumerus -33.615 22.4616 76.3863
lradius 25.6994
lwrist -11.5306
lhand 0.130155 32.6039
lfingers 7.12502
lthumb 25.715 60.8866
rfemur -14.4002 5.06794 23.2399
rtibia 37.5658
rfoot -20.3226 -10.4816
rtoes 11.0901
lfemur -11.8441 -0.0895918 -16.6155
ltibia 37.3266
lfoot -24.8054 10.7172
ltoes 4.85242
59
root 10.3284 17.7627 -18.1374 7.48671 -37.6993 -7.89455
lowerback 2.82972 -0.284353 -1.54185
upperback -1.75511 -0.336269 4.28563
thorax -3.3682 -0.0893533 5.33556
lowerneck -11.4693 -8.81151 -17.7782
upperneck 16.9088 -11.5452 13.7702
head 9.04929 -5.45145 6.22304
rclavicle -4.17525e-014 -4.96962e-015
rhumerus -38.6484 -21.2613 -68.0596
rradius 31.5507
rwrist -14.6167
rhand -10.7017 16.7608
rfingers 7.12502
rthumb 15.3078 -12.6527
lclavicle -4.17525e-014 -4.96962e-015
lhumerus -33.7577 22.6332 76.3333
lradius 25.6061
lwrist -11.7255
lhand -0.0757564 32.3644
lfingers 7.12502
lthumb 25.5178 60.6756
rfemur -14.4289 5.12206 23.2997
rtibia 37.5608
rfoot -20.2681 -10.564
rtoes 10.8123
lfemur -11.8854 0.019762 -16.5433
ltibia 37.3424
lfoot -24.8125 10.6803
ltoes 4.91413
60
root 10.3266 17.7624 -18.1396 7.56806 -37.7151 -7.97216
lowerback 2.87394 -0.303741 -1.55719
upperback -1.81644 -0.359154 4.38125
thorax -3.45431 -0.0970862 5.44828
lowerneck -11.4539 -8.79387 -17.8039
upperneck 16.9838 -11.4808 13.5666
head 9.04912 -5.44069 6.16515
rclavicle 1.76398e-014 5.96354e-015
rhumerus -38.7169 -20.9 -68.0085
rradius 31.5144
rwrist -14.8555
rhand -10.9444 16.5029
rfingers 7.12502
rthumb 15.074 -12.9283
lclavicle 1.76398e-014 5.96354e-015
lhumerus -33.8754 22.9012 76.2861
lradius 25.4746
lwrist -11.7959
lhand -0.0995518 32.475
lfingers 7.12502
lthumb 25.495 60.7895
rfemur -14.4709 5.13541 23.3767
rtibia 37.5467
rfoot -20.2034 -10.6406
rtoes 10.1586
lfemur -11.9425 0.0817741 -16.4599
ltibia 37.3634
lfoot -24.7905 10.7257
ltoes 4.59568
61
root 10.3252 17.7608 -18.1377 7.49418 -37.7604 -7.86613
lowerback 2.99264 -0.370419 -1.7152
upperback -1.90655 -0.451586 4.41772
thorax -3.60446 -0.134616 5.58618
lowerneck -11.5319 -8.69386 -17.7795
upperneck 17.2378 -11.3197 13.3891
head 9.10871 -5.37786 6.12469
rclavicle 1.06177e-013 -3.18055e-014
rhumerus -38.8119 -21.4469 -67.5695
rradius 31.0495
rwrist -13.9592
rhand -10.7292 16.8147
rfingers 7.12502
rthumb 15.2813 -12.6008
lclavicle 1.06177e-013 -3.18055e-014
lhumerus -34.068 23.0787 76.1509
lradius 25.3208
lwrist -11.6501
lhand 0.0535558 32.9625
lfingers 7.12502
lthumb 25.6417 61.2559
rfemur -14.4465 5.14672 23.2748
rtibia 37.527
rfoot -20.2332 -10.5746
rtoes 10.3149
lfemur -11.9231 0.0660926 -16.572
ltibia 37.3818
lfoot -24.8295 10.8113
ltoes 4.24431
62
root 10.3246 17.7602 -18.136 7.38971 -37.8075 -7.83011
lowerback 3.36822 -0.421232 -1.84365
upperback -2.16404 -0.515557 4.50229
thorax -4.07761 -0.147984 5.76543
lowerneck -11.2598 -8.51528 -17.8116
upperneck 17.4511 -11.0957 13.2084
head 9.08253 -5.30471 6.11155
rclavicle -3.73715e-014 9.93923e-015
rhumerus -39.2709 -21.0744 -67.2923
rradius 30.9414
rwrist -13.7649
rhand -10.597 16.8855
rfingers 7.12502
rthumb 15.4087 -12.5203
lclavicle -3.73715e-014 9.93923e-015
lhumerus -34.6214 23.0769 75.9972
lradius 25.2399
lwrist -11.4977
lhand 0.286861 33.4024
lfingers 7.12502
lthumb 25.8651 61.6634
rfemur -14.3345 5.14571 23.2328
rtibia 37.5098
rfoot -20.3229 -10.4507
rtoes 11.1115
lfemur -11.8143 0.0365679 -16.6253
ltibia 37.4026
lfoot -24.8465 10.8598
ltoes 4.43552
63
root 10.3243 17.7609 -18.1365 7.41168 -37.8196 -7.92871
lowerback 3.2597 -0.299515 -1.62376
upperback -2.08953 -0.344804 4.468
thorax -3.95833 -0.0730203 5.58836
lowerneck -11.1044 -8.56808 -17.9715
upperneck 17.3633 -11.1915 13.3634
head 9.0606 -5.35225 6.18206
rclavicle 3.79896e-014 -1.51076e-014
rhumerus -39.4526 -21.5594 -66.9496
rradius 30.8698
rwrist -13.5548
rhand -10.4183 16.9229
rfingers 7.12502
rthumb 15.5808 -12.4695
lclavicle 3.79896e-014 -1.51076e-014
lhumerus -34.3214 22.7116 76.2274
lradius 25.0564
lwrist -11.4832
lhand 0.391447 33.5756
lfingers 7.12502
lthumb 25.9653 61.822
rfemur -14.2857 5.12266 23.3166
rtibia 37.4966
rfoot -20.3025 -10.4028
rtoes 11.3442
lfemur -11.7888 0.21721 -16.514
ltibia 37.4286
lfoot -24.7783 10.7261
ltoes 4.67773
